<svg xmlns="http://www.w3.org/2000/svg" width="900" height="980" viewBox="0 0 900 980">
  <defs><style>.act{fill:#dcfce7;stroke:#15803d;stroke-width:2}.dec{fill:#fef3c7;stroke:#b45309;stroke-width:2}.end{fill:#111827}.txt{font:16px Arial,sans-serif;fill:#0f172a}.line{stroke:#334155;stroke-width:2;fill:none;marker-end:url(#a)}</style><marker id="a" viewBox="0 0 10 10" refX="9" refY="5" markerWidth="7" markerHeight="7" orient="auto"><path d="M0 0 L10 5 L0 10 Z" fill="#334155"/></marker></defs>
  <text class="txt" x="450" y="38" text-anchor="middle" style="font-size:24px">Bakici Rezervasyonu Is Akisi</text>
  <circle class="end" cx="450" cy="80" r="13"/>
  <rect class="act" x="280" y="120" width="340" height="55" rx="12"/><text class="txt" x="450" y="154" text-anchor="middle">Bakici listesini ac</text>
  <rect class="act" x="280" y="215" width="340" height="55" rx="12"/><text class="txt" x="450" y="249" text-anchor="middle">Bakici sec</text>
  <rect class="act" x="280" y="310" width="340" height="55" rx="12"/><text class="txt" x="450" y="344" text-anchor="middle">Hizmet ve tarih gir</text>
  <polygon class="dec" points="450,405 575,470 450,535 325,470"/><text class="txt" x="450" y="476" text-anchor="middle">Tarih gecerli mi?</text>
  <rect class="act" x="80" y="590" width="275" height="55" rx="12"/><text class="txt" x="218" y="624" text-anchor="middle">Girdi hatasi goster</text>
  <rect class="act" x="545" y="590" width="275" height="55" rx="12"/><text class="txt" x="682" y="624" text-anchor="middle">Uygunluk sorgula</text>
  <polygon class="dec" points="682,690 807,755 682,820 557,755"/><text class="txt" x="682" y="761" text-anchor="middle">Bakici musait mi?</text>
  <rect class="act" x="500" y="870" width="365" height="55" rx="12"/><text class="txt" x="682" y="904" text-anchor="middle">Rezervasyonu olustur ve bildir</text>
  <circle class="end" cx="682" cy="955" r="15"/><circle cx="682" cy="955" r="22" fill="none" stroke="#111827" stroke-width="2"/>
  <path class="line" d="M450 93 L450 120"/><path class="line" d="M450 175 L450 215"/><path class="line" d="M450 270 L450 310"/><path class="line" d="M450 365 L450 405"/>
  <path class="line" d="M325 470 L218 590"/><path class="line" d="M575 470 L682 590"/><path class="line" d="M682 645 L682 690"/><path class="line" d="M682 820 L682 870"/><path class="line" d="M682 925 L682 933"/>
</svg>
